<?xml version="1.0" encoding="UTF-8"?>
<svg id="Layer_1" data-name="Layer 1" xmlns="http://www.w3.org/2000/svg" viewBox="0 0 171.93 142.19">
  <defs>
    <style>
      .cls-1 {
        fill: #fefefe;
      }

      .cls-1, .cls-2, .cls-3 {
        stroke: #000;
        stroke-miterlimit: 10;
        stroke-width: 5px;
      }

      .cls-2 {
        fill: #fdfdfd;
      }
    </style>
  </defs>
  <path class="cls-3" d="M85.93,111.18c9.13,.06,17.87-1.81,26.49-4.53,3.14-.99,3.3-2.01,.9-4.15-3.6-3.21-7.06-6.59-10.46-10.01-1.49-1.5-2.59-1.77-4.68-.72-10.92,5.5-21.18,4.18-29.01-3.42-7.68-7.45-9.49-17.81-4.4-28.42,1.41-2.94-.21-3.87-1.69-5.29-14.8-14.14-29.63-28.26-44.45-42.39-.96-.92-1.93-1.84-2.86-2.79-1.76-1.79-2.25-3.79-.36-5.7,1.85-1.88,3.89-1.51,5.77,.13,.88,.77,1.69,1.6,2.53,2.41,7.71,7.35,15.42,14.7,23.12,22.07,1.44,1.38,2.58,2.73,5.09,1.76,41-15.93,75.41-2.96,106.42,24.51,2.61,2.31,5.06,4.83,7.37,7.45,4.96,5.63,5,12.42-.02,18-9.2,10.23-19.84,18.75-31.89,25.36-3.51,1.93-3.18,2.99-.57,5.39,7.36,6.75,14.5,13.74,21.74,20.62,2,1.91,4.21,3.99,1.74,6.74-2.66,2.97-5.01,.95-7.18-1.13-8.05-7.72-16.2-15.33-24.14-23.16-2.08-2.05-3.74-2.4-6.49-1.33-26.08,10.12-51.5,7.97-76.22-4.6-13.63-6.93-25.62-16.1-35.94-27.39-5.66-6.19-5.66-12.92,.12-19.07,3.63-3.88,7.61-7.44,11.53-11.04,2.08-1.91,4.52-2.55,6.51-.02,1.88,2.38,.39,4.25-1.48,5.99-3.78,3.51-7.52,7.06-11.17,10.7-2.56,2.55-2.51,5.32,0,7.92,20.23,20.88,43.74,35.08,73.68,36.13Z"/>
  <path class="cls-1" d="M86,30.97c30.13,1.04,53.74,15.35,73.99,36.48,2.36,2.47,2.04,5.11-.23,7.54-9.62,10.31-20.65,18.77-33.08,25.44-2.21,1.19-3.6,.78-5.21-.87-2.32-2.39-4.67-4.77-7.25-6.86-5.29-4.31-8.65-7.98-5.18-16.21,3.75-8.89-.19-17.77-7.81-23.98-7.95-6.49-16.99-7.49-26.13-2.78-3.16,1.63-4.86,1.39-7.12-1.1-2.9-3.2-6.12-6.12-9.35-8.99-2.4-2.12-2.25-3.16,.88-4.15,8.62-2.7,17.35-4.6,26.49-4.51Z"/>
  <path class="cls-2" d="M85.46,54.85c11.4,.1,19.26,10.49,16.28,20.61-.79,2.67-1.73,3.78-4.24,1.29-5.54-5.49-11.28-10.79-16.86-16.24-.98-.95-2.98-1.64-2.33-3.37,.55-1.44,2.44-1.57,3.85-1.92,1.28-.31,2.63-.31,3.29-.37Z"/>
  <path class="cls-2" d="M86.51,87.3c-11.44-.09-19.28-10.45-16.3-20.66,.75-2.58,1.64-3.85,4.2-1.29,5.53,5.52,11.29,10.81,16.89,16.27,.98,.96,2.99,1.66,2.36,3.37-.53,1.44-2.44,1.58-3.86,1.94-1.27,.32-2.64,.31-3.3,.37Z"/>
</svg>