<?xml version="1.0" encoding="UTF-8"?>
<svg id="Layer_1" data-name="Layer 1" xmlns="http://www.w3.org/2000/svg" viewBox="0 0 413.56 413.43">
  <defs>
    <style>
      .cls-1 {
        fill: #f1f2f2;
      }
    </style>
  </defs>
  <path class="cls-1" d="M206.77,0c114.14-.63,206.52,93.22,206.79,206.13,.26,110.61-88.36,207.08-206.28,207.29C90.35,413.65,.28,319.36,0,207.17-.29,92.07,93.41-.49,206.77,0Zm-63.67,189.63c-.28-.55-.56-1.11-.84-1.66,1.55-1.25,3.23-2.37,4.63-3.76,11.93-11.86,23.77-23.82,35.73-35.65,4.65-4.61,6.83-9.9,4.78-16.26-3.45-10.69-16.12-13.47-24.61-5.3-8.64,8.31-17.01,16.92-25.49,25.4-14.26,14.25-28.55,28.46-42.75,42.77-6.75,6.8-7.57,15.12-1.44,21.33,23.41,23.71,46.92,47.31,70.81,70.53,2.75,2.67,8.12,3.78,12.22,3.65,5.69-.18,9.73-4.2,11.35-9.79,1.66-5.71,.25-10.84-4.01-15.11-12.61-12.6-25.21-25.21-37.8-37.82-.95-.95-1.77-2.02-3.21-3.67,3,0,4.99,0,6.98,0,50.64,0,101.28,.02,151.92-.04,3.14,0,6.34-.25,9.4-.9,6.95-1.48,12.93-8.47,13.3-15.1,.59-10.46-7.31-18.58-18.23-18.58-52.47-.02-104.95-.01-157.42-.01-1.78,0-3.55,0-5.33,0Z"/>
</svg>