<?xml version="1.0" encoding="utf-8"?>
<!-- Generator: Adobe Illustrator 22.0.0, SVG Export Plug-In . SVG Version: 6.00 Build 0)  -->
<svg version="1.1" id="Layer_1" xmlns="http://www.w3.org/2000/svg" xmlns:xlink="http://www.w3.org/1999/xlink" x="0px" y="0px"
	 viewBox="0 0 242.8 69" style="enable-background:new 0 0 242.8 69;" xml:space="preserve">
<style type="text/css">
	.st0{fill:#ED1F24;}
	.st1{fill:#FFFFFF;}
</style>
<title>logo-pubinteractive</title>
<g>
	<g>
		<path d="M86.8,33.5h4.8L88.9,49h-4.8L86.8,33.5z M90.6,25.8c1.5,0,2.6,1.2,2.3,2.8c-0.3,1.5-1.7,2.8-3.2,2.8s-2.6-1.2-2.3-2.8
			C87.6,27.1,89,25.8,90.6,25.8z"/>
		<path d="M95,33.5h4.6l-0.4,2.1h0.1c0.8-1.2,2.6-2.5,4.9-2.5c4.8,0,5.2,3.2,4.4,7.3l-1.5,8.5h-4.8l1.3-7.6c0.3-1.8,0.7-4.1-1.8-4.1
			s-3.2,1.9-3.5,3.9L97,48.8h-4.8L95,33.5z"/>
		<path d="M123.1,37.3h-4.2l-0.9,5.1c-0.3,1.7-0.3,2.9,1.7,2.9c0.5,0,1.5-0.1,2-0.4l-0.7,4c-1.1,0.4-2.3,0.5-3.4,0.5
			c-3.2,0-5.4-1.3-4.8-4.7l1.3-7.3H111l0.7-3.8h3.1l0.8-4.6h4.8l-0.8,4.6h4.2L123.1,37.3z"/>
		<path d="M138.6,46.2c-1.9,1.9-4.6,3.1-7.1,3.1c-4.8,0-8-3.2-7.2-8.1c0.9-4.9,5.2-8.1,10-8.1c4.4,0,6.7,3.2,5.8,8.1l-0.2,1.5h-11.1
			c0.1,1.8,1.2,3,3,3c1.6,0,2.8-0.8,3.8-1.9L138.6,46.2z M135.8,39.4c0.3-1.6-0.7-2.9-2.4-2.9c-2.1,0-3.5,1.4-3.9,2.9H135.8z"/>
		<path d="M144.5,33.5h4.8l-0.4,2.5h0.1c1.4-1.9,2.9-2.9,5-2.9c0.5,0,1.1,0,1.6,0.2l-0.8,4.4c-0.6-0.2-1.3-0.3-2-0.3
			c-3.6,0-4.4,2.1-4.9,5.2l-1.1,6.5H142L144.5,33.5z"/>
		<path d="M164.7,47L164.7,47c-1.4,1.7-3.5,2.3-5.4,2.3c-2.9,0-5.2-1.7-4.7-4.8c0.9-5.3,7.4-5.4,11.4-5.4c0.3-1.7-0.9-2.8-2.5-2.8
			s-3,0.7-4.2,1.8l-2.1-2.6c2-1.7,4.7-2.5,7.2-2.5c5.6,0,6.5,2.8,5.7,8l-1.4,7.9h-4.4L164.7,47z M164.4,42.1c-1.5,0-4.7,0.1-5.1,2.2
			c-0.2,1.1,0.9,1.7,2,1.7c1.9,0,3.8-1,4.1-2.9l0.2-1H164.4z"/>
		<path d="M184,38.5c-0.4-0.7-1.2-1.2-2.2-1.2c-2.4,0-4.1,1.6-4.5,3.9s0.8,3.9,3.1,3.9c1,0,1.9-0.5,2.6-1.2l2.6,3.3
			c-1.7,1.5-4,2.1-5.9,2.1c-4.8,0-8-3.2-7.2-8.1c0.9-4.9,5.2-8.1,10-8.1c1.8,0,3.9,0.5,5.1,2.1L184,38.5z"/>
		<path d="M199.6,37.3h-4.2l-0.9,5.1c-0.3,1.7-0.3,2.9,1.7,2.9c0.5,0,1.5-0.1,2-0.4l-0.7,4c-1.1,0.4-2.3,0.5-3.4,0.5
			c-3.2,0-5.4-1.3-4.8-4.7l1.3-7.3h-3.1l0.7-3.8h3.1l0.8-4.6h4.8l-0.8,4.6h4.2L199.6,37.3z"/>
		<path d="M202.8,33.5h4.8L204.9,49h-4.8L202.8,33.5z M206.5,25.8c1.5,0,2.6,1.2,2.3,2.8c-0.3,1.5-1.7,2.8-3.2,2.8s-2.6-1.2-2.3-2.8
			C203.5,27.1,205,25.8,206.5,25.8z"/>
		<path d="M209.4,33.5h5.1l2.1,10.5h0.1l5.5-10.5h4.8L218.2,49H213L209.4,33.5z"/>
		<path d="M241,46.2c-1.9,1.9-4.6,3.1-7.1,3.1c-4.8,0-8-3.2-7.2-8.1c0.9-4.9,5.2-8.1,10-8.1c4.4,0,6.7,3.2,5.8,8.1l-0.2,1.5h-11.1
			c0.1,1.8,1.2,3,3,3c1.6,0,2.8-0.8,3.8-1.9L241,46.2z M238.2,39.4c0.3-1.6-0.7-2.9-2.4-2.9c-2.1,0-3.5,1.4-3.9,2.9H238.2z"/>
	</g>
	<polygon class="st0" points="0,52.1 77.9,52.1 85.1,9 7.2,9 	"/>
	<g>
		<path class="st1" d="M10.4,23.5h9.2c5.1,0,9.1,1.6,8,7.5c-1,5.8-5.2,7.6-10.4,7.6h-4l-1.7,9.6H6.1L10.4,23.5z M14,33.9h3.6
			c1.9,0,4-0.7,4.3-3c0.5-2.5-2.1-2.9-4.1-2.9H15L14,33.9z"/>
		<path class="st1" d="M50.4,38.6c-1,5.8-5.3,10.1-12.1,10.1c-6.9,0-9.6-4.3-8.6-10.1l2.7-15.1h5.4l-2.6,14.9
			c-0.5,3,1.2,5.3,4.1,5.3c2.9,0,5.3-2.3,5.9-5.3l2.6-14.9h5.4L50.4,38.6z"/>
		<path class="st1" d="M58.1,23.5h9.2c4.3,0,8.8,0.9,7.9,6.3c-0.5,2.7-2.5,4.6-5.2,5.4v0.1c3.2,0.4,4.9,2.8,4.3,6
			c-0.9,5.2-6.1,6.9-10.5,6.9h-10L58.1,23.5z M60,43.5h4.9c1.7,0,3.7-0.7,4.1-2.9c0.4-2.3-2.1-2.7-3.9-2.7H61L60,43.5z M61.8,33.3
			h3.9c1.7,0,3.5-0.7,3.9-2.7c0.4-2.1-1.5-2.6-3.2-2.6h-3.7L61.8,33.3z"/>
	</g>
</g>
</svg>
