<?xml version="1.0" encoding="UTF-8"?>
<svg id="Layer_1" data-name="Layer 1" xmlns="http://www.w3.org/2000/svg" viewBox="0 0 413.56 413.43">
  <defs>
    <style>
      .cls-1 {
        fill: #f1f2f2;
      }
    </style>
  </defs>
  <path class="cls-1" d="M413.56,207.17c-.28,112.19-90.35,206.48-207.27,206.26C88.36,413.21-.26,316.75,0,206.14,.27,93.23,92.64-.63,206.79,0c113.36-.5,207.05,92.07,206.77,207.17Zm-148.43-17.54c-52.47,0-104.95-.01-157.42,.01-10.92,0-18.82,8.12-18.23,18.58,.37,6.63,6.35,13.61,13.3,15.1,3.06,.65,6.26,.9,9.4,.9,50.64,.05,101.28,.04,151.92,.04,1.99,0,3.98,0,6.98,0-1.44,1.65-2.26,2.72-3.21,3.67-12.59,12.62-25.19,25.22-37.8,37.82-4.27,4.27-5.68,9.4-4.01,15.11,1.63,5.59,5.67,9.61,11.35,9.79,4.09,.13,9.47-.97,12.22-3.65,23.89-23.22,47.4-46.82,70.81-70.53,6.13-6.2,5.31-14.53-1.44-21.33-14.2-14.31-28.49-28.52-42.75-42.77-8.48-8.48-16.85-17.08-25.49-25.4-8.49-8.16-21.16-5.39-24.61,5.3-2.05,6.37,.12,11.66,4.78,16.26,11.96,11.83,23.8,23.79,35.73,35.65,1.4,1.4,3.08,2.52,4.63,3.76-.28,.55-.56,1.11-.84,1.66-1.78,0-3.55,0-5.33,0Z"/>
</svg>