<?xml version="1.0" encoding="UTF-8"?>
<svg id="Layer_1" data-name="Layer 1" xmlns="http://www.w3.org/2000/svg" viewBox="0 0 307.39 307.44">
  <path d="M153.69,.01c41.83,0,83.65-.04,125.48,.02,14.24,.02,23.82,6.55,26.99,18.43,.89,3.33,1.18,6.91,1.18,10.38,.06,83.16,.06,166.33,.03,249.49,0,19.05-9.98,29.08-28.95,29.08-83.15,.03-166.31,.03-249.46,.01-18.96,0-28.94-10.01-28.94-29.09C0,195.17,0,112.01,.03,28.84,.03,10.11,10.06,.05,28.71,.03,70.37-.02,112.03,.01,153.69,.01ZM12.81,153.21c0,41.5,0,83,0,124.51,0,12.53,4.35,16.91,16.76,16.91,82.49,0,164.99,0,247.48,0,13.45,0,17.53-4.11,17.53-17.65,0-82.34,0-164.67,0-247.01,0-12.85-4.26-17.15-17.02-17.15-82.66,0-165.32,0-247.98,0-12.4,0-16.78,4.41-16.78,16.89,0,41.17,0,82.34,0,123.51Z"/>
  <path d="M147.57,83.81h12.65v62.68h63.5v12.9h-63.39v64.28h-12.77v-64.22h-63.64v-12.75h63.66v-62.88Z"/>
</svg>