<?xml version="1.0" encoding="UTF-8"?>
<svg id="Layer_1" data-name="Layer 1" xmlns="http://www.w3.org/2000/svg" viewBox="0 0 616.67 650">
  <defs>
    <style>
      .cls-1 {
        stroke-linecap: round;
      }

      .cls-1, .cls-2 {
        fill: none;
        stroke: #ed1e24;
        stroke-miterlimit: 133.33;
        stroke-width: 50px;
      }
    </style>
  </defs>
  <path class="cls-1" d="M591.67,125H25"/>
  <path class="cls-1" d="M225,291.67l16.67,166.67"/>
  <path class="cls-1" d="M391.67,291.67l-16.67,166.67"/>
  <path class="cls-2" d="M125,125c1.86,0,2.79,0,3.64-.02,27.45-.7,51.66-18.15,61-43.97,.29-.79,.58-1.68,1.17-3.44l3.24-9.71c2.76-8.29,4.14-12.43,5.98-15.95,7.31-14.04,20.83-23.79,36.46-26.28,3.92-.63,8.29-.63,17.02-.63h109.65c8.74,0,13.11,0,17.02,.63,15.63,2.5,29.15,12.24,36.46,26.28,1.83,3.52,3.21,7.66,5.98,15.95l3.24,9.71c.59,1.76,.88,2.65,1.17,3.44,9.34,25.82,33.55,43.27,61,43.97,.84,.02,1.77,.02,3.64,.02"/>
  <path class="cls-1" d="M520.78,438.3c-5.9,88.5-8.85,132.75-37.68,159.72-28.83,26.98-73.18,26.98-161.87,26.98h-25.78c-88.69,0-133.04,0-161.87-26.98-28.83-26.97-31.78-71.22-37.68-159.72l-15.33-229.97m455.56,0l-6.67,100"/>
</svg>