<?xml version="1.0" encoding="UTF-8"?>
<svg id="Layer_1" data-name="Layer 1" xmlns="http://www.w3.org/2000/svg" viewBox="0 0 175.03 175.05">
  <path d="M86.85,104.48c-1.39,1.95-2.26,3.62-3.54,4.9-20.11,20.18-40.25,40.33-60.42,60.46-5.86,5.85-11.59,6.72-17.36,2.84-5.5-3.7-7.19-10.57-3.77-16.21,1.19-1.96,2.83-3.7,4.47-5.34,19.76-19.82,39.56-39.61,59.38-59.37,1.28-1.28,2.92-2.2,4.64-3.47-2.01-2.15-3.19-3.49-4.45-4.75C45.55,63.27,25.27,43.02,5.03,22.73-.58,17.1-1.45,11.4,2.23,5.76,6-.03,12.94-1.73,18.78,1.92c1.95,1.22,3.67,2.86,5.31,4.5,20.98,20.96,41.92,41.95,63.29,63.35,1.42-1.35,2.71-2.53,3.95-3.77,20.27-20.26,40.52-40.54,60.8-60.78,5.86-5.85,11.59-6.73,17.36-2.85,5.5,3.69,7.19,10.57,3.77,16.21-1.19,1.96-2.83,3.7-4.47,5.34-19.76,19.82-39.56,39.61-59.37,59.38-1.28,1.28-2.78,2.34-4.42,3.71,1.77,1.9,2.96,3.24,4.22,4.5,20.26,20.27,40.54,40.52,60.77,60.81,5.62,5.63,6.48,11.33,2.81,16.98-3.77,5.79-10.72,7.49-16.55,3.84-1.95-1.22-3.67-2.86-5.31-4.5-20.98-20.96-41.92-41.95-64.1-64.16Z"/>
</svg>